<svg viewBox="0 0 100 100" fill="none" xmlns="http://www.w3.org/2000/svg"><path d="M50.4 100a50 50 0 1 0 0-100 50 50 0 0 0 0 100Z" fill="#B00000" fill-opacity=".15"/><path d="M75.5 62.54V64a3.72 3.72 0 0 1-3.73 3.72H27.12A3.72 3.72 0 0 1 23.4 64V36.72A3.72 3.72 0 0 1 27.12 33h44.65a3.72 3.72 0 0 1 3.72 3.72v6.03" stroke="#B00000" stroke-width="3" stroke-linecap="round" stroke-linejoin="round"/><path d="M69.44 43.23v4.16M69.44 57.08v4.15M76.86 47.9l-3.45 1.94M65.47 54.62l-3.45 1.95M62.02 47.9l3.45 1.94M73.41 54.63l3.45 1.94M30.8 57.73l7.8-7.8 5.74 5.73L56.3 43.68" stroke="#B00000" stroke-width="3" stroke-miterlimit="10" stroke-linecap="round" stroke-linejoin="round"/></svg>