<svg viewBox="0 0 100 100" fill="none" xmlns="http://www.w3.org/2000/svg"><path d="M50.4 100a50 50 0 1 0 0-100 50 50 0 0 0 0 100Z" fill="#B00000" fill-opacity=".15"/><path d="M36.3 23.89a29 29 0 1 1-9.95 8.68" stroke="#B00000" stroke-width="3" stroke-linecap="round" stroke-linejoin="round"/><path d="m34.88 24.17 1.94-4.2M34.88 23.87l4.1 1.66" stroke="#B00000" stroke-width="2" stroke-linecap="round" stroke-linejoin="round"/><path d="M49.9 72.13a22.63 22.63 0 1 0 0-45.26 22.63 22.63 0 0 0 0 45.26Z" stroke="#B00000" stroke-width="3"/><path d="M49.9 30.45c-.7 0-1.27.57-1.27 1.27v1.7a1.27 1.27 0 0 0 2.54 0v-1.7c0-.7-.57-1.27-1.27-1.27ZM49.9 64.31c-.7 0-1.27.57-1.27 1.27v1.7a1.27 1.27 0 1 0 2.54 0v-1.7c0-.7-.57-1.27-1.27-1.27ZM68.95 49.5c0-.7-.57-1.27-1.27-1.27h-1.7a1.27 1.27 0 1 0 0 2.54h1.7c.7 0 1.27-.57 1.27-1.27ZM35.09 49.5c0-.7-.57-1.27-1.27-1.27h-1.7a1.27 1.27 0 1 0 0 2.54h1.7c.7 0 1.27-.57 1.27-1.27Z" fill="#B00000"/><path d="m43.3 49.63 4.68 4.55 9.72-9.44" stroke="#B00000" stroke-width="3" stroke-linecap="round" stroke-linejoin="round"/></svg>