<svg fill="none" xmlns="http://www.w3.org/2000/svg"><path d="M53.82 100c27.5 0 49.81-22.39 49.81-50S81.33 0 53.82 0C26.3 0 4 22.39 4 50s22.3 50 49.82 50Z" fill="#B00000" fill-opacity=".15"/><path d="M30.5 45.85H27.7c-.47 0-.93.2-1.27.57-.33.36-.52.85-.52 1.36v7.76c0 .51.19 1 .52 1.37.34.36.8.56 1.27.56h2.78M77.96 45.85h1.96c.47 0 .93.2 1.27.57.33.36.52.85.52 1.36v7.76c0 .51-.19 1-.52 1.37-.34.36-.8.56-1.27.56h-2.78" stroke="#B00000" stroke-width="3.11" stroke-linecap="round"/><path d="M64.21 70.52h3.65a24.2 24.2 0 0 0-.24-39.1 23.81 23.81 0 0 0-28.28.49 24.2 24.2 0 0 0 1.1 39.1" stroke="#B00000" stroke-width="3" stroke-linecap="round"/><path d="M61.37 72.82h-9.64c-.5 0-.98-.2-1.34-.57a1.98 1.98 0 0 1-.56-1.37v-.26c0-.51.2-1 .56-1.37a1.9 1.9 0 0 1 1.34-.58h9.64c.5 0 .99.21 1.34.58.36.36.56.86.56 1.37v.26c0 .51-.2 1-.56 1.37-.35.37-.84.57-1.34.57Z" stroke="#B00000" stroke-width="3" stroke-linecap="round"/><path d="M39.06 55.86h6.22v-1.5H41.6v-.07l1.28-1.24c1.8-1.64 2.27-2.46 2.27-3.45 0-1.51-1.23-2.58-3.1-2.58-1.84 0-3.1 1.1-3.09 2.8h1.75c0-.83.53-1.34 1.32-1.34.77 0 1.34.47 1.34 1.24 0 .7-.42 1.17-1.22 1.94l-3.1 2.87v1.33Zm7.24-1.53h4.18v1.53h1.77v-1.53h1.08v-1.48h-1.08v-5.72h-2.31l-3.64 5.74v1.46Zm4.22-1.48h-2.37v-.07l2.3-3.63h.07v3.7Zm9.4 1.8 1.12-1.12-1.99-1.98 1.99-1.98-1.12-1.13-1.99 1.98-1.99-1.98-1.12 1.13 1.99 1.98-1.99 1.98 1.12 1.12 2-1.98 1.98 1.98Zm3.14 1.21h1.9l3.63-7.2v-1.53h-6.12v1.51h4.21v.06l-3.62 7.16Z" fill="#B00000"/></svg>