<svg xmlns="http://www.w3.org/2000/svg"><path d="M19.2 3.7c-2-2-4.8-3.1-7.7-3.1a10.9 10.9 0 0 0-9.4 16.2L.6 22.4 6.3 21a11 11 0 0 0 16.1-9.5c0-2.9-1.2-5.6-3.2-7.7Zm-7.7 16.7a9 9 0 0 1-4.6-1.2l-.3-.2-3.4.9.9-3.4-.2-.3a9 9 0 0 1 7.6-13.8A9 9 0 0 1 17.9 5a9 9 0 0 1 2.7 6.4c0 5-4.1 9-9.1 9Zm5-6.7a39 39 0 0 0-2-1c-.2 0-.3 0-.5.2L13 14c-.1.2-.3.2-.6 0a7.4 7.4 0 0 1-3.7-3.2c-.2-.4.3-.4.8-1.4v-.5l-.8-2c-.2-.6-.5-.5-.6-.5h-.5a1 1 0 0 0-.8.3c-.2.3-1 1-1 2.3 0 1.3 1 2.6 1.2 2.8.1.2 1.9 3 4.6 4 1.7.8 2.4.9 3.3.8.5-.1 1.6-.7 1.8-1.3.2-.7.2-1.2.1-1.3l-.5-.3Z" fill="#fff"/></svg>